HIERARCHY
ROOT Hips
{
	OFFSET -0.001795 -0.223333 0.028219
	CHANNELS 6 Xposition Yposition Zposition Zrotation Yrotation Xrotation 
	JOINT LeftUpLeg
	{
		OFFSET 0.069520 -0.091406 -0.006815
		CHANNELS 3 Zrotation Yrotation Xrotation
		JOINT LeftLeg
		{
			OFFSET 0.034277 -0.375199 -0.004496
			CHANNELS 3 Zrotation Yrotation Xrotation
			JOINT LeftFoot
			{
				OFFSET -0.013596 -0.397961 -0.043693
				CHANNELS 3 Zrotation Yrotation Xrotation
				JOINT LeftToe
				{
					OFFSET 0.026358 -0.055791 0.119288
					CHANNELS 3 Zrotation Yrotation Xrotation
					End Site
					{
						OFFSET 0.000000 0.000000 0.000000
					}
				}
			}
		}
	}
	JOINT RightUpLeg
	{
		OFFSET -0.067670 -0.090522 -0.004320
		CHANNELS 3 Zrotation Yrotation Xrotation
		JOINT RightLeg
		{
			OFFSET -0.038290 -0.382569 -0.008850
			CHANNELS 3 Zrotation Yrotation Xrotation
			JOINT RightFoot
			{
				OFFSET 0.015774 -0.398415 -0.042312
				CHANNELS 3 Zrotation Yrotation Xrotation
				JOINT RightToe
				{
					OFFSET -0.025372 -0.048144 0.123348
					CHANNELS 3 Zrotation Yrotation Xrotation
					End Site
					{
						OFFSET 0.000000 0.000000 0.000000
					}
				}
			}
		}
	}
	JOINT Spine
	{
		OFFSET -0.002533 0.108963 -0.026696
		CHANNELS 3 Zrotation Yrotation Xrotation
		JOINT Spine1
		{
			OFFSET 0.005487 0.135180 0.001092
			CHANNELS 3 Zrotation Yrotation Xrotation
			JOINT Spine2
			{
				OFFSET 0.001457 0.052922 0.025425
				CHANNELS 3 Zrotation Yrotation Xrotation
				JOINT Neck
				{
					OFFSET -0.002778 0.213870 -0.042857
					CHANNELS 3 Zrotation Yrotation Xrotation
					JOINT Head
					{
						OFFSET 0.005152 0.064970 0.051349
						CHANNELS 3 Zrotation Yrotation Xrotation
						End Site
						{
							OFFSET 0.000000 0.000000 0.000000
						}
					}
				}
				JOINT LeftShoulder
				{
					OFFSET 0.078845 0.121749 -0.034090
					CHANNELS 3 Zrotation Yrotation Xrotation
					JOINT LeftArm
					{
						OFFSET 0.090977 0.030469 -0.008868
						CHANNELS 3 Zrotation Yrotation Xrotation
						JOINT LeftForeArm
						{
							OFFSET 0.259612 -0.012772 -0.027456
							CHANNELS 3 Zrotation Yrotation Xrotation
							JOINT LeftHand
							{
								OFFSET 0.249234 0.008986 -0.001171
								CHANNELS 3 Zrotation Yrotation Xrotation
								End Site
								{
									OFFSET 0.000000 0.000000 0.000000
								}
							}
						}
					}
				}
				JOINT RightShoulder
				{
					OFFSET -0.081759 0.118833 -0.038615
					CHANNELS 3 Zrotation Yrotation Xrotation
					JOINT RightArm
					{
						OFFSET -0.096012 0.032551 -0.009143
						CHANNELS 3 Zrotation Yrotation Xrotation
						JOINT RightForeArm
						{
							OFFSET -0.253742 -0.013329 -0.021401
							CHANNELS 3 Zrotation Yrotation Xrotation
							JOINT RightHand
							{
								OFFSET -0.255298 0.007772 -0.005559
								CHANNELS 3 Zrotation Yrotation Xrotation
								End Site
								{
									OFFSET 0.000000 0.000000 0.000000
								}
							}
						}
					}
				}
			}
		}
	}
}
MOTION
Frames: 16
Frame Time: 0.050000
-0.158385 0.824846 0.174258 -17.666985 37.570119 -11.818831 44.187238 -4.068193 -23.859678 -20.810099 1.671079 48.352058 -0.107306 7.279581 14.526994 0.000000 0.000000 0.000000 14.897937 3.140396 -38.833604 -9.894156 -1.616856 49.423933 0.034291 -6.931962 44.314523 0.000000 0.000000 0.000000 -11.158751 -1.985253 27.016568 -4.173349 2.316450 -5.222932 -13.500823 -18.032598 5.853000 6.903985 -2.951840 -16.305421 0.000000 0.000000 0.000000 -9.049192 -3.211588 -0.068995 -6.809384 -16.176484 -0.404403 30.324242 -1.764673 -0.605874 0.000000 0.000000 0.000000 3.139671 -16.634670 -6.229182 25.025837 -14.416563 -4.698993 -4.104767 32.485664 0.186639 0.000000 0.000000 0.000000 
-0.159573 0.822418 0.171142 -17.221547 34.385078 -11.558033 44.934440 -3.611332 -22.369649 -22.925376 3.261594 47.870805 3.149161 12.773630 17.700248 0.000000 0.000000 0.000000 15.928949 3.948340 -39.309203 -11.563634 0.065421 50.672015 8.383162 0.508149 43.838173 0.000000 0.000000 0.000000 -10.751925 -1.792543 27.059492 -4.580063 2.459465 -4.931341 -14.310528 -18.086625 5.088943 6.707999 -3.007307 -15.732734 0.000000 0.000000 0.000000 -10.936099 -3.802091 0.206848 -6.168381 -14.719328 -0.470731 29.476917 -2.204811 -0.567633 0.000000 0.000000 0.000000 3.116425 -16.276467 -6.090959 22.989133 -13.796601 -4.153938 -4.413260 32.013163 -0.038297 0.000000 0.000000 0.000000 
-0.160031 0.820470 0.168498 -16.928348 32.467516 -11.213946 44.307786 -3.088646 -22.076805 -23.593833 3.859054 48.095876 7.501840 18.949054 21.192088 0.000000 0.000000 0.000000 16.326200 4.380081 -39.874759 -12.778429 1.213765 51.915814 14.975963 7.344357 41.888596 0.000000 0.000000 0.000000 -10.005579 -1.812057 27.545804 -4.950034 2.590556 -4.735489 -15.438406 -18.895194 4.745011 7.003933 -3.277875 -15.792719 0.000000 0.000000 0.000000 -12.409984 -4.295330 0.562965 -5.937309 -14.256555 -0.517607 29.712681 -2.340256 -0.500574 0.000000 0.000000 0.000000 3.145081 -16.154664 -6.050346 22.029609 -12.735235 -3.795344 -5.086598 30.544886 -0.328673 0.000000 0.000000 0.000000 
-0.160126 0.820433 0.166897 -16.595506 30.356765 -11.332729 43.874050 -2.767440 -20.610804 -24.510878 4.565970 47.449340 12.311426 24.580463 24.498780 0.000000 0.000000 0.000000 16.737216 4.882326 -40.163369 -14.299585 2.572688 53.649930 22.240631 14.547350 41.792829 0.000000 0.000000 0.000000 -9.561499 -1.733236 27.661668 -5.702125 2.861977 -3.881460 -15.735578 -19.881148 4.199609 6.256529 -2.928051 -16.043721 0.000000 0.000000 0.000000 -13.492439 -4.273653 0.845215 -6.745143 -12.763171 -0.581122 30.226662 -4.102481 -0.792413 0.000000 0.000000 0.000000 3.190580 -15.546605 -5.835298 21.461911 -11.580471 -3.526619 -5.947193 29.804962 -0.685609 0.000000 0.000000 0.000000 
-0.160306 0.822165 0.166312 -16.257651 28.895825 -10.774735 43.036421 -2.451576 -20.006590 -24.864634 4.896788 46.481983 17.367725 29.540861 28.689076 0.000000 0.000000 0.000000 16.993963 5.212097 -40.326963 -15.174097 3.512793 54.359716 25.140562 19.498269 38.729111 0.000000 0.000000 0.000000 -9.182133 -1.619830 27.306289 -5.472281 2.792134 -4.542694 -17.167930 -20.299734 4.838858 6.208878 -2.970767 -15.944457 0.000000 0.000000 0.000000 -14.279745 -3.843424 0.755835 -7.680977 -12.716121 -0.615196 32.854034 -5.479992 -1.182957 0.000000 0.000000 0.000000 2.650515 -15.652027 -5.737706 20.988433 -10.208015 -3.252967 -5.417915 29.275824 -0.591965 0.000000 0.000000 0.000000 
-0.160942 0.823899 0.165994 -15.909602 27.795172 -10.370697 42.725352 -2.257741 -19.407970 -24.566973 4.972708 46.294792 17.279857 29.368164 29.249117 0.000000 0.000000 0.000000 17.043625 5.436132 -40.299758 -15.472308 4.033240 54.701916 26.232296 22.197627 36.594948 0.000000 0.000000 0.000000 -8.850512 -1.503317 26.718233 -6.108584 3.018727 -3.800922 -17.209288 -21.366174 4.697455 6.152354 -2.900070 -17.203074 0.000000 0.000000 0.000000 -15.124430 -2.936070 0.595976 -8.172650 -12.303454 -0.682641 36.372658 -7.157643 -1.690566 0.000000 0.000000 0.000000 2.293910 -15.549874 -5.596174 21.262805 -9.476184 -3.213191 -5.411522 28.990944 -0.697939 0.000000 0.000000 0.000000 
-0.162196 0.825361 0.165490 -15.613479 27.089453 -9.785707 42.105750 -2.023626 -19.409982 -23.707566 4.732261 46.373055 17.020934 29.047368 29.875003 0.000000 0.000000 0.000000 17.339295 5.633301 -39.815835 -15.502513 4.274488 54.241589 23.699434 23.064122 31.022307 0.000000 0.000000 0.000000 -8.861566 -1.411363 26.565960 -6.298868 3.116001 -4.828380 -17.959684 -21.459605 5.735672 6.414067 -3.148791 -17.022592 0.000000 0.000000 0.000000 -15.854933 -2.676678 0.533639 -7.728392 -12.436307 -0.704272 41.345564 -7.854462 -2.197268 0.000000 0.000000 0.000000 2.585643 -15.677908 -5.740944 20.868475 -9.137317 -3.116178 -5.117640 29.042100 -0.648575 0.000000 0.000000 0.000000 
-0.163937 0.825122 0.164461 -15.595967 26.851247 -9.736314 41.890931 -1.808843 -20.014394 -23.275771 4.641658 47.741687 16.192859 28.282659 29.366753 0.000000 0.000000 0.000000 17.298302 5.677406 -39.859565 -15.531668 4.365422 54.786796 23.480754 24.619889 28.443931 0.000000 0.000000 0.000000 -8.554263 -1.418467 26.353911 -6.877359 3.329971 -4.165402 -17.940198 -21.781381 5.643458 7.098893 -3.388897 -18.530442 0.000000 0.000000 0.000000 -15.867474 -1.902840 0.241912 -7.347630 -12.518673 -0.710396 46.467557 -8.885842 -2.868978 0.000000 0.000000 0.000000 2.579299 -15.972805 -5.843490 20.960235 -9.009706 -3.120377 -4.466465 29.079952 -0.524630 0.000000 0.000000 0.000000 
-0.165757 0.823206 0.163246 -15.549322 26.552451 -9.725149 41.811280 -1.648109 -20.376617 -22.930201 4.582347 48.863287 15.402983 27.545122 28.493187 0.000000 0.000000 0.000000 17.538957 5.798263 -39.746919 -15.761149 4.585596 55.146331 22.401200 25.548864 25.156236 0.000000 0.000000 0.000000 -8.330651 -1.417858 26.193670 -6.800500 3.297321 -4.000642 -18.122582 -21.320383 5.764495 6.856871 -3.198287 -18.685003 0.000000 0.000000 0.000000 -15.934294 -1.845133 0.146063 -6.581235 -12.378871 -0.694105 50.445956 -9.304731 -3.403140 0.000000 0.000000 0.000000 2.585833 -16.646091 -6.084611 20.671027 -9.283867 -3.106669 -4.361817 30.223727 -0.508090 0.000000 0.000000 0.000000 
-0.167380 0.820317 0.162236 -15.788298 26.754655 -10.031912 41.788800 -1.582291 -20.864986 -22.537457 4.380598 50.482949 14.483387 26.774792 25.755720 0.000000 0.000000 0.000000 17.624472 5.802178 -39.835193 -15.701093 4.461463 56.193558 20.922644 25.888927 21.856600 0.000000 0.000000 0.000000 -8.196779 -1.463130 26.172121 -6.717341 3.268336 -3.910699 -18.071784 -21.093888 6.312429 7.012250 -3.191376 -19.545373 0.000000 0.000000 0.000000 -15.536200 -1.641050 0.022383 -5.917416 -11.667435 -0.690878 53.648524 -8.859480 -3.512092 0.000000 0.000000 0.000000 2.048309 -16.622389 -5.923093 20.889940 -9.209745 -3.153519 -4.624298 30.503287 -0.569868 0.000000 0.000000 0.000000 
-0.168151 0.817316 0.161716 -15.850414 26.711897 -10.232241 42.029375 -1.512354 -21.188772 -22.189098 4.253685 51.561391 12.921213 25.115990 24.857963 0.000000 0.000000 0.000000 17.967700 5.916803 -39.867142 -15.888920 4.569044 57.367448 18.543241 25.150270 18.036823 0.000000 0.000000 0.000000 -7.999698 -1.493394 26.108418 -6.803090 3.308926 -4.010739 -18.281557 -20.520710 6.633468 7.239260 -3.175295 -20.307559 0.000000 0.000000 0.000000 -15.364699 -1.313742 -0.234784 -5.504804 -11.762752 -0.670877 55.733439 -8.428897 -3.568971 0.000000 0.000000 0.000000 1.848273 -16.713259 -5.905460 20.757795 -9.502358 -3.173881 -4.763905 31.313113 -0.585902 0.000000 0.000000 0.000000 
-0.167842 0.815391 0.161348 -16.069539 26.998618 -10.314619 41.697967 -1.498631 -21.465802 -21.831179 3.990278 52.515296 13.056508 25.355364 22.360320 0.000000 0.000000 0.000000 18.248660 5.965348 -40.002764 -16.226957 4.698741 58.557012 16.521567 24.761922 14.222924 0.000000 0.000000 0.000000 -7.916814 -1.497110 25.837915 -6.612768 3.230772 -3.866228 -18.518579 -20.270410 6.530057 7.209935 -3.167399 -19.877420 0.000000 0.000000 0.000000 -15.265048 -1.337300 -0.309455 -4.890200 -11.648583 -0.645346 55.669234 -7.992427 -3.421928 0.000000 0.000000 0.000000 1.627844 -16.712786 -5.843583 20.367703 -9.591167 -3.105474 -4.269721 32.289807 -0.443333 0.000000 0.000000 0.000000 
-0.166639 0.814841 0.161038 -16.521428 27.499943 -10.301247 41.930728 -1.537723 -22.078868 -21.604081 3.797490 52.655640 12.754729 25.064598 22.147581 0.000000 0.000000 0.000000 17.891386 5.785189 -40.441313 -15.519325 4.074251 59.485134 15.384309 24.172072 12.424436 0.000000 0.000000 0.000000 -7.596580 -1.570401 25.726276 -6.571883 3.226100 -4.543959 -18.931406 -19.857957 6.903694 7.791759 -3.419447 -19.968769 0.000000 0.000000 0.000000 -15.209608 -1.513116 -0.363511 -4.991305 -11.125852 -0.632684 54.192821 -8.316549 -3.570765 0.000000 0.000000 0.000000 1.564390 -16.771044 -5.865560 20.101526 -9.150983 -2.993744 -4.509892 32.193035 -0.440664 0.000000 0.000000 0.000000 
-0.165003 0.816562 0.160409 -16.954274 27.954695 -10.564446 41.800927 -1.609836 -22.252253 -21.209800 3.455231 52.973211 12.424743 24.730054 20.886238 0.000000 0.000000 0.000000 18.011732 5.706893 -39.704245 -15.149137 3.561507 59.573002 12.800955 22.461165 8.472593 0.000000 0.000000 0.000000 -7.594609 -1.559755 25.342150 -6.731613 3.293342 -4.550948 -19.123143 -19.476586 6.348088 8.108742 -3.470710 -20.103411 0.000000 0.000000 0.000000 -14.462821 -1.601685 -0.426539 -5.289643 -10.962045 -0.610413 51.542433 -9.989466 -4.164761 0.000000 0.000000 0.000000 1.216224 -16.517090 -5.683889 19.310877 -8.750555 -2.782103 -3.550536 32.290721 -0.120812 0.000000 0.000000 0.000000 
-0.163296 0.819562 0.159885 -17.920524 28.843956 -10.869466 42.351355 -1.811480 -22.669096 -21.361505 3.368539 52.467303 12.830110 25.286603 20.112111 0.000000 0.000000 0.000000 17.952174 5.506072 -39.244675 -14.078404 2.486219 58.899928 11.368239 20.689103 7.077284 0.000000 0.000000 0.000000 -7.524731 -1.591376 24.965675 -6.942575 3.397704 -5.714580 -19.343017 -18.431032 7.144248 9.099849 -3.894026 -20.326009 0.000000 0.000000 0.000000 -13.835451 -2.253418 -0.336574 -4.943620 -10.526641 -0.579233 49.947584 -11.585874 -4.911106 0.000000 0.000000 0.000000 1.138657 -16.398983 -5.670647 18.449240 -8.023809 -2.559628 -3.783473 30.405490 -0.038370 0.000000 0.000000 0.000000 
-0.161459 0.823708 0.159551 -18.602024 30.128514 -11.190901 42.462808 -2.065917 -23.101903 -21.166503 2.988724 52.297246 12.029962 24.402684 18.121960 0.000000 0.000000 0.000000 17.696483 5.196493 -38.531673 -13.026645 1.310451 58.101828 9.322998 17.774199 5.370858 0.000000 0.000000 0.000000 -7.862283 -1.570927 24.555275 -6.886190 3.380470 -5.707635 -19.422494 -17.635601 6.662771 9.608446 -4.069310 -19.991953 0.000000 0.000000 0.000000 -12.604216 -2.568042 -0.344408 -5.049136 -10.068366 -0.542233 47.794037 -13.311677 -5.523003 0.000000 0.000000 0.000000 0.734341 -16.084233 -5.488590 17.536776 -7.666503 -2.355666 -4.273755 29.473204 -0.041740 0.000000 0.000000 0.000000 
